<svg id="Layer_1" version="1.1" viewBox="0 0 24 24" xml:space="preserve" xmlns="http://www.w3.org/2000/svg" enable-background="new 0 0 24 24"><path d="m23.3 13.3-.6 2.8h-3.2c-.5 1-1.2 1.9-2.1 2.6l.8 3.1-2.6 1.2-1.9-2.5c-.5.1-1.1.2-1.7.2-.6 0-1.1-.1-1.6-.2l-2 2.5-2.6-1.3.7-3.1c-.8-.7-1.5-1.6-2-2.6H1.3l-.6-2.8L3.6 12c0-1.1.3-2.2.7-3.2l-2-2.5L4.1 4l2.8 1.4c.9-.7 1.9-1.1 3-1.4h0l.7-3h2.9l.7 3.1h0c1.1.3 2.1.8 3 1.4L20 4.1l1.8 2.3-2 2.4c.4 1 .7 2.1.7 3.2l2.8 1.3z" fill="none" stroke="#ffffff" stroke-width="1.5" stroke-linecap="round" stroke-linejoin="round" stroke-miterlimit="10" class="stroke-000000"></path><circle cx="12" cy="12.2" r="3.5" fill="none" stroke="#ffffff" stroke-width="1.5" stroke-linecap="round" stroke-linejoin="round" stroke-miterlimit="10" class="stroke-000000"></circle></svg>