<svg viewBox="0 0 32 32" xmlns="http://www.w3.org/2000/svg"><g data-name="Layer 2"><path d="M24.33 23h-10.8a3 3 0 0 1-2.9-2.21L8 11.26a1 1 0 0 1 .17-.87A1 1 0 0 1 9 10h19a1 1 0 0 1 .77.36 1 1 0 0 1 .21.82l-1.7 9.36A3 3 0 0 1 24.33 23Zm-14-11 2.25 8.26a1 1 0 0 0 1 .74h10.8a1 1 0 0 0 1-.82L26.8 12Z" fill="#ffffff" class="fill-000000"></path><path d="M9 12a1 1 0 0 1-1-.73L6.45 5.73a1 1 0 0 0-1-.73H4a1 1 0 0 1 0-2h1.49a3 3 0 0 1 2.89 2.18L10 10.73A1 1 0 0 1 9.27 12 .84.84 0 0 1 9 12ZM16 29a2 2 0 1 1 2-2 2 2 0 0 1-2 2Zm0-2Zm0 0Zm0 0Zm0 0Zm0 0Zm0 0Zm0 0Zm0 0ZM22 29a2 2 0 1 1 2-2 2 2 0 0 1-2 2Zm0-2ZM22 17h-6a1 1 0 0 1 0-2h6a1 1 0 0 1 0 2Z" fill="#ffffff" class="fill-000000"></path></g><path d="M0 0h32v32H0z" fill="none"></path></svg>